<?xml version="1.0" encoding="utf-8"?>
<!-- Generator: Adobe Illustrator 16.0.0, SVG Export Plug-In . SVG Version: 6.00 Build 0)  -->
<!DOCTYPE svg PUBLIC "-//W3C//DTD SVG 1.1//EN" "http://www.w3.org/Graphics/SVG/1.1/DTD/svg11.dtd">
<svg version="1.1" id="Layer_1" xmlns="http://www.w3.org/2000/svg" xmlns:xlink="http://www.w3.org/1999/xlink" x="0px" y="0px"
	 width="500px" height="500px" viewBox="0 0 500 500" enable-background="new 0 0 500 500" xml:space="preserve">
<rect fill="#939598" stroke="#231F20" stroke-miterlimit="10" width="500" height="500"/>
<g>
	<path d="M43.243,267.903v-41.117h5.795l13.177,20.803c3.05,4.819,5.429,9.15,7.381,13.36l0.122-0.062
		c-0.488-5.49-0.61-10.493-0.61-16.898v-17.203h5.002v41.117h-5.369L55.688,247.04c-2.868-4.575-5.613-9.272-7.687-13.726
		l-0.183,0.061c0.305,5.186,0.427,10.127,0.427,16.959v17.569H43.243z"/>
	<path d="M109.917,252.896c0,10.92-7.564,15.678-14.702,15.678c-7.992,0-14.153-5.856-14.153-15.189
		c0-9.883,6.466-15.679,14.641-15.679C104.183,237.706,109.917,243.868,109.917,252.896z M86.492,253.201
		c0,6.467,3.721,11.347,8.968,11.347c5.125,0,8.968-4.819,8.968-11.469c0-5.002-2.501-11.347-8.846-11.347
		C89.237,241.732,86.492,247.589,86.492,253.201z"/>
	<path d="M135.108,226.786v41.117h-5.308v-41.117H135.108z"/>
	<path d="M144.806,246.369c0-3.05-0.061-5.551-0.244-7.992h4.697l0.244,4.758h0.183c1.647-2.806,4.393-5.429,9.273-5.429
		c4.026,0,7.077,2.44,8.357,5.917h0.122c0.915-1.647,2.074-2.928,3.294-3.843c1.769-1.342,3.721-2.074,6.527-2.074
		c3.904,0,9.7,2.562,9.7,12.812v17.386h-5.246v-16.716c0-5.673-2.074-9.089-6.406-9.089c-3.05,0-5.429,2.257-6.344,4.88
		c-0.244,0.732-0.427,1.708-0.427,2.685v18.24h-5.246v-17.691c0-4.697-2.074-8.114-6.162-8.114c-3.355,0-5.795,2.685-6.649,5.369
		c-0.305,0.793-0.427,1.708-0.427,2.623v17.813h-5.247V246.369z"/>
	<path d="M212.03,267.903l-0.427-3.722h-0.183c-1.647,2.318-4.819,4.393-9.028,4.393c-5.979,0-9.029-4.209-9.029-8.479
		c0-7.138,6.344-11.042,17.752-10.981v-0.61c0-2.44-0.671-6.833-6.71-6.833c-2.746,0-5.613,0.854-7.687,2.196l-1.22-3.539
		c2.44-1.586,5.978-2.623,9.7-2.623c9.028,0,11.225,6.162,11.225,12.079v11.041c0,2.563,0.122,5.064,0.488,7.077H212.03z
		 M211.236,252.835c-5.856-0.122-12.506,0.915-12.506,6.649c0,3.478,2.318,5.125,5.063,5.125c3.843,0,6.284-2.44,7.138-4.941
		c0.183-0.549,0.305-1.159,0.305-1.709V252.835z"/>
	<path d="M250.521,238.377c-0.122,2.135-0.244,4.515-0.244,8.114v17.142c0,6.771-1.342,10.92-4.209,13.482
		c-2.867,2.684-7.016,3.538-10.737,3.538c-3.538,0-7.442-0.854-9.822-2.44l1.342-4.087c1.952,1.22,5.002,2.317,8.663,2.317
		c5.49,0,9.517-2.867,9.517-10.309v-3.295h-0.122c-1.647,2.745-4.819,4.941-9.395,4.941c-7.321,0-12.567-6.223-12.567-14.396
		c0-10.005,6.527-15.679,13.299-15.679c5.125,0,7.931,2.684,9.212,5.125h0.122l0.244-4.454H250.521z M244.97,250.029
		c0-0.915-0.061-1.708-0.305-2.44c-0.976-3.111-3.599-5.673-7.503-5.673c-5.125,0-8.785,4.331-8.785,11.164
		c0,5.796,2.928,10.614,8.724,10.614c3.294,0,6.284-2.074,7.443-5.49c0.305-0.914,0.427-1.951,0.427-2.867V250.029z"/>
	<path d="M262.17,254.116c0.121,7.26,4.758,10.249,10.127,10.249c3.843,0,6.161-0.672,8.174-1.525l0.916,3.844
		c-1.892,0.854-5.125,1.83-9.822,1.83c-9.09,0-14.52-5.979-14.52-14.885c0-8.907,5.246-15.923,13.848-15.923
		c9.64,0,12.201,8.479,12.201,13.909c0,1.098-0.121,1.952-0.183,2.501H262.17z M277.908,250.273
		c0.062-3.416-1.402-8.724-7.441-8.724c-5.43,0-7.809,5.002-8.236,8.724H277.908z"/>
	<path d="M302.855,226.786H325v4.454h-16.838v13.665h15.557v4.392h-15.557v18.606h-5.307V226.786z"/>
	<path d="M357.209,252.896c0,10.92-7.564,15.678-14.702,15.678c-7.991,0-14.153-5.856-14.153-15.189
		c0-9.883,6.467-15.679,14.642-15.679C351.475,237.706,357.209,243.868,357.209,252.896z M333.783,253.201
		c0,6.467,3.721,11.347,8.968,11.347c5.124,0,8.968-4.819,8.968-11.469c0-5.002-2.502-11.347-8.846-11.347
		C336.528,241.732,333.783,247.589,333.783,253.201z"/>
	<path d="M388.685,259.851c0,3.05,0.062,5.734,0.244,8.053h-4.759l-0.305-4.819h-0.122c-1.403,2.379-4.515,5.49-9.761,5.49
		c-4.637,0-10.188-2.563-10.188-12.933v-17.265h5.368v16.35c0,5.612,1.708,9.395,6.589,9.395c3.6,0,6.1-2.502,7.076-4.881
		c0.305-0.793,0.488-1.769,0.488-2.744v-18.119h5.368V259.851z"/>
	<path d="M397.588,246.369c0-3.05-0.061-5.551-0.244-7.992h4.759l0.305,4.88h0.122c1.465-2.806,4.881-5.551,9.761-5.551
		c4.087,0,10.433,2.44,10.433,12.567v17.63h-5.369v-17.021c0-4.758-1.77-8.724-6.832-8.724c-3.539,0-6.283,2.501-7.199,5.491
		c-0.244,0.671-0.365,1.586-0.365,2.501v17.752h-5.369V246.369z"/>
	<path d="M456.943,224.59v35.688c0,2.623,0.061,5.613,0.244,7.626h-4.82l-0.243-5.124h-0.122c-1.647,3.294-5.247,5.795-10.066,5.795
		c-7.137,0-12.627-6.039-12.627-15.007c-0.062-9.822,6.039-15.861,13.237-15.861c4.515,0,7.564,2.135,8.906,4.514h0.122v-17.63
		H456.943z M451.574,250.395c0-0.671-0.061-1.586-0.243-2.257c-0.794-3.416-3.722-6.222-7.748-6.222
		c-5.552,0-8.846,4.88-8.846,11.408c0,5.979,2.929,10.92,8.724,10.92c3.6,0,6.894-2.38,7.87-6.405
		c0.183-0.732,0.243-1.465,0.243-2.318V250.395z"/>
</g>
</svg>
