<!DOCTYPE svg PUBLIC "-//W3C//DTD SVG 1.1//EN" "http://www.w3.org/Graphics/SVG/1.1/DTD/svg11.dtd"><svg xmlns="http://www.w3.org/2000/svg" width="1060" height="190.747"><path fill="#FCBB69" d="M200 73.918c0-2.965-2.242-4.808-6.733-5.529l-60.334-8.773L105.89 4.928C104.369 1.642 102.404 0 100.001 0s-4.367 1.642-5.889 4.928L67.067 59.616 6.73 68.389C2.244 69.11 0 70.953 0 73.918c0 1.683 1.001 3.607 3.005 5.77l43.75 42.547-10.342 60.097c-.161 1.123-.24 1.925-.24 2.405 0 1.684.42 3.104 1.262 4.268.841 1.162 2.102 1.742 3.786 1.742 1.442 0 3.044-.479 4.808-1.441l53.965-28.368 53.97 28.368c1.684.963 3.286 1.441 4.806 1.441 1.607 0 2.827-.578 3.667-1.742.84-1.163 1.26-2.584 1.26-4.268 0-1.042-.04-1.843-.121-2.405l-10.342-60.097 43.63-42.547c2.085-2.083 3.125-4.007 3.125-5.77m215.011 0c0-2.965-2.242-4.808-6.733-5.529l-60.334-8.773L320.89 4.928C319.369 1.642 317.404 0 315.001 0s-4.367 1.642-5.889 4.928l-27.045 54.688-60.337 8.773c-4.486.721-6.73 2.564-6.73 5.529 0 1.683 1.001 3.607 3.005 5.77l43.75 42.547-10.342 60.097c-.161 1.123-.24 1.925-.24 2.405 0 1.684.42 3.104 1.262 4.268.841 1.162 2.102 1.742 3.786 1.742 1.442 0 3.044-.479 4.808-1.441l53.965-28.368 53.97 28.368c1.684.963 3.286 1.441 4.806 1.441 1.607 0 2.827-.578 3.667-1.742.84-1.163 1.26-2.584 1.26-4.268 0-1.042-.04-1.843-.121-2.405l-10.342-60.097 43.63-42.547c2.085-2.083 3.125-4.007 3.125-5.77"/><path fill="#DFDFDF" d="M630 73.918c0-2.965-2.242-4.808-6.733-5.529l-60.334-8.773L535.89 4.928C534.369 1.642 532.404 0 530.001 0s-4.367 1.642-5.889 4.928l-27.045 54.688-60.337 8.773c-4.486.721-6.73 2.564-6.73 5.529 0 1.683 1.001 3.607 3.005 5.77l43.75 42.547-10.342 60.097c-.161 1.123-.24 1.925-.24 2.405 0 1.684.42 3.104 1.262 4.268.841 1.162 2.102 1.742 3.786 1.742 1.442 0 3.044-.479 4.808-1.441l53.965-28.368 53.97 28.368c1.684.963 3.286 1.441 4.806 1.441 1.607 0 2.827-.578 3.667-1.742.84-1.163 1.26-2.584 1.26-4.268 0-1.042-.04-1.843-.121-2.405l-10.342-60.097 43.63-42.547c2.085-2.083 3.125-4.007 3.125-5.77m215.011 0c0-2.965-2.242-4.808-6.733-5.529l-60.334-8.773L750.89 4.928C749.369 1.642 747.404 0 745.001 0s-4.367 1.642-5.889 4.928l-27.045 54.688-60.337 8.773c-4.486.721-6.73 2.564-6.73 5.529 0 1.683 1.001 3.607 3.005 5.77l43.75 42.547-10.342 60.097c-.161 1.123-.24 1.925-.24 2.405 0 1.684.42 3.104 1.262 4.268.841 1.162 2.102 1.742 3.786 1.742 1.442 0 3.044-.479 4.808-1.441l53.965-28.368 53.97 28.368c1.684.963 3.286 1.441 4.806 1.441 1.607 0 2.827-.578 3.667-1.742.84-1.163 1.26-2.584 1.26-4.268 0-1.042-.04-1.843-.121-2.405l-10.342-60.097 43.63-42.547c2.085-2.083 3.125-4.007 3.125-5.77m215.011 0c0-2.965-2.242-4.808-6.733-5.529l-60.334-8.773L965.89 4.928C964.369 1.642 962.404 0 960.001 0s-4.367 1.642-5.889 4.928l-27.045 54.688-60.337 8.773c-4.486.721-6.73 2.564-6.73 5.529 0 1.683 1.001 3.607 3.005 5.77l43.75 42.547-10.342 60.097c-.161 1.123-.24 1.925-.24 2.405 0 1.684.42 3.104 1.262 4.268.841 1.162 2.102 1.742 3.786 1.742 1.442 0 3.044-.479 4.808-1.441l53.965-28.368 53.97 28.368c1.684.963 3.286 1.441 4.806 1.441 1.607 0 2.827-.578 3.667-1.742.84-1.163 1.26-2.584 1.26-4.268 0-1.042-.04-1.843-.121-2.405l-10.342-60.097 43.63-42.547c2.085-2.083 3.125-4.007 3.125-5.77m-651.721-5.529l-60.334-8.773-27.043-54.688C319.369 1.642 317.404 0 315.001 0H315v160.941l53.963 28.365c1.684.963 3.287 1.441 4.807 1.441 1.606 0 2.826-.578 3.667-1.742.84-1.163 1.261-2.584 1.261-4.268 0-1.042-.04-1.843-.121-2.405l-10.342-60.097 43.629-42.548c2.086-2.083 3.126-4.006 3.126-5.77h.01c0-2.964-2.242-4.807-6.732-5.528z"/></svg>