<?xml version="1.0" encoding="utf-8"?>
<!-- Generator: Adobe Illustrator 16.0.0, SVG Export Plug-In . SVG Version: 6.00 Build 0)  -->
<!DOCTYPE svg PUBLIC "-//W3C//DTD SVG 1.1//EN" "http://www.w3.org/Graphics/SVG/1.1/DTD/svg11.dtd">
<svg version="1.1" id="Layer_1" xmlns="http://www.w3.org/2000/svg" xmlns:xlink="http://www.w3.org/1999/xlink" x="0px" y="0px"
	 width="500px" height="500px" viewBox="0 0 500 500" enable-background="new 0 0 500 500" xml:space="preserve">
<rect fill="#343A40" stroke="#231F20" stroke-miterlimit="10" width="500" height="500"/>
<g>
	<path fill="#FFFFFF" d="M65.833,264.648h-4.736L41.59,234.692h-0.195c0.26,3.516,0.391,6.738,0.391,9.668v20.289h-3.833v-35.693
		h4.688l19.458,29.833h0.195c-0.033-0.438-0.106-1.851-0.22-4.235c-0.114-2.384-0.155-4.089-0.122-5.115v-20.483h3.882
		L65.833,264.648L65.833,264.648z"/>
	<path fill="#FFFFFF" d="M98.132,251.246c0,4.361-1.099,7.768-3.296,10.217c-2.197,2.449-5.233,3.674-9.106,3.674
		c-2.393,0-4.517-0.561-6.372-1.684s-3.288-2.734-4.297-4.834c-1.009-2.1-1.514-4.559-1.514-7.373c0-4.362,1.09-7.76,3.271-10.193
		c2.181-2.433,5.208-3.65,9.082-3.65c3.743,0,6.718,1.245,8.923,3.735C97.029,243.628,98.132,246.998,98.132,251.246z
		 M77.747,251.246c0,3.418,0.684,6.021,2.051,7.813c1.367,1.791,3.377,2.687,6.03,2.687c2.653,0,4.667-0.892,6.042-2.675
		c1.375-1.781,2.063-4.391,2.063-7.823c0-3.402-0.688-5.986-2.063-7.752c-1.375-1.766-3.406-2.649-6.091-2.649
		c-2.653,0-4.655,0.871-6.006,2.612S77.747,247.795,77.747,251.246z"/>
	<path fill="#FFFFFF" d="M118.835,264.648v-35.693h4.15v35.693H118.835z"/>
	<path fill="#FFFFFF" d="M166.272,264.648v-17.407c0-2.132-0.456-3.731-1.367-4.797c-0.912-1.066-2.328-1.599-4.248-1.599
		c-2.523,0-4.387,0.725-5.591,2.173c-1.205,1.449-1.807,3.679-1.807,6.689v14.941h-4.053v-17.407c0-2.132-0.456-3.731-1.367-4.797
		c-0.912-1.066-2.336-1.599-4.272-1.599c-2.539,0-4.399,0.761-5.579,2.283c-1.18,1.522-1.77,4.016-1.77,7.483v14.037h-4.053v-26.756
		h3.296l0.659,3.662h0.195c0.765-1.302,1.843-2.319,3.235-3.052c1.392-0.733,2.95-1.099,4.675-1.099
		c4.183,0,6.917,1.514,8.203,4.541h0.195c0.797-1.399,1.953-2.506,3.467-3.32c1.514-0.813,3.239-1.221,5.176-1.221
		c3.027,0,5.293,0.777,6.799,2.332c1.505,1.555,2.258,4.041,2.258,7.458v17.456H166.272L166.272,264.648z"/>
	<path fill="#FFFFFF" d="M195.129,264.648l-0.806-3.81h-0.195c-1.335,1.679-2.666,2.813-3.992,3.406
		c-1.327,0.594-2.983,0.891-4.968,0.891c-2.653,0-4.732-0.684-6.238-2.051c-1.506-1.367-2.258-3.312-2.258-5.834
		c0-5.403,4.321-8.236,12.964-8.497l4.541-0.146v-1.66c0-2.1-0.452-3.65-1.354-4.651c-0.903-1.001-2.348-1.501-4.333-1.501
		c-2.23,0-4.753,0.684-7.568,2.051l-1.245-3.101c1.318-0.716,2.763-1.277,4.333-1.685c1.57-0.407,3.146-0.61,4.724-0.61
		c3.19,0,5.554,0.708,7.092,2.124s2.307,3.687,2.307,6.812v18.262H195.129L195.129,264.648z M185.974,261.793
		c2.522,0,4.504-0.691,5.945-2.076c1.44-1.383,2.161-3.32,2.161-5.811v-2.416l-4.053,0.17c-3.223,0.115-5.546,0.615-6.97,1.502
		c-1.424,0.887-2.136,2.268-2.136,4.139c0,1.465,0.443,2.58,1.331,3.344C183.138,261.41,184.379,261.793,185.974,261.793z"/>
	<path fill="#FFFFFF" d="M228.381,237.891v2.563l-4.956,0.586c0.456,0.57,0.862,1.314,1.221,2.234
		c0.358,0.92,0.537,1.958,0.537,3.113c0,2.621-0.896,4.712-2.686,6.275c-1.791,1.563-4.248,2.344-7.373,2.344
		c-0.798,0-1.546-0.064-2.246-0.195c-1.726,0.912-2.588,2.06-2.588,3.441c0,0.732,0.301,1.273,0.903,1.624s1.636,0.524,3.101,0.524
		h4.736c2.896,0,5.123,0.61,6.677,1.832c1.554,1.221,2.332,2.994,2.332,5.321c0,2.962-1.188,5.22-3.564,6.774
		c-2.376,1.554-5.843,2.331-10.4,2.331c-3.5,0-6.197-0.65-8.093-1.953c-1.896-1.302-2.844-3.142-2.844-5.519
		c0-1.627,0.521-3.035,1.563-4.223s2.506-1.994,4.395-2.418c-0.684-0.309-1.257-0.789-1.721-1.439s-0.696-1.407-0.696-2.271
		c0-0.978,0.26-1.83,0.781-2.563c0.521-0.731,1.343-1.44,2.466-2.125c-1.384-0.567-2.511-1.537-3.381-2.903
		c-0.871-1.368-1.306-2.93-1.306-4.688c0-2.93,0.879-5.188,2.637-6.775c1.758-1.587,4.248-2.38,7.471-2.38
		c1.399,0,2.661,0.163,3.784,0.488L228.381,237.891L228.381,237.891z M207.043,269.141c0,1.449,0.61,2.547,1.831,3.297
		c1.221,0.748,2.97,1.123,5.249,1.123c3.401,0,5.92-0.51,7.556-1.525c1.636-1.018,2.454-2.397,2.454-4.139
		c0-1.448-0.448-2.453-1.343-3.016c-0.896-0.563-2.58-0.842-5.054-0.842h-4.858c-1.839,0-3.271,0.439-4.297,1.318
		C207.555,266.236,207.043,267.497,207.043,269.141z M209.241,246.46c0,1.872,0.529,3.288,1.587,4.248
		c1.058,0.96,2.531,1.44,4.419,1.44c3.955,0,5.933-1.92,5.933-5.761c0-4.02-2.002-6.03-6.006-6.03c-1.904,0-3.369,0.513-4.395,1.538
		C209.753,242.92,209.241,244.442,209.241,246.46z"/>
	<path fill="#FFFFFF" d="M245.178,265.137c-3.955,0-7.076-1.203-9.363-3.613c-2.287-2.407-3.43-5.752-3.43-10.032
		c0-4.313,1.063-7.74,3.187-10.279s4.976-3.809,8.557-3.809c3.353,0,6.006,1.103,7.959,3.308c1.953,2.206,2.931,5.115,2.931,8.728
		v2.563h-18.434c0.081,3.143,0.875,5.525,2.38,7.154c1.505,1.627,3.625,2.441,6.36,2.441c2.881,0,5.729-0.604,8.544-1.808v3.612
		c-1.433,0.619-2.787,1.063-4.064,1.33C248.527,265.003,246.985,265.137,245.178,265.137z M244.08,240.796
		c-2.148,0-3.862,0.7-5.139,2.1c-1.278,1.4-2.031,3.337-2.258,5.811h13.989c0-2.555-0.57-4.512-1.709-5.872
		C247.823,241.476,246.195,240.796,244.08,240.796z"/>
	<path fill="#FFFFFF" d="M295.666,255.152c0,3.141-1.139,5.59-3.418,7.348c-2.278,1.758-5.371,2.637-9.277,2.637
		c-4.23,0-7.486-0.545-9.766-1.635v-4.004c1.465,0.618,3.061,1.105,4.785,1.465c1.726,0.357,3.435,0.537,5.127,0.537
		c2.768,0,4.851-0.525,6.25-1.575c1.4-1.05,2.1-2.511,2.1-4.382c0-1.236-0.248-2.25-0.744-3.04c-0.496-0.789-1.326-1.519-2.49-2.185
		c-1.163-0.667-2.934-1.424-5.311-2.271c-3.32-1.188-5.691-2.596-7.115-4.224c-1.426-1.627-2.137-3.751-2.137-6.372
		c0-2.75,1.033-4.939,3.1-6.567c2.067-1.627,4.803-2.441,8.203-2.441c3.549,0,6.813,0.651,9.791,1.953l-1.295,3.613
		c-2.945-1.237-5.811-1.855-8.594-1.855c-2.197,0-3.914,0.472-5.15,1.416c-1.237,0.944-1.854,2.254-1.854,3.931
		c0,1.237,0.228,2.25,0.684,3.04c0.455,0.79,1.226,1.514,2.308,2.173c1.082,0.659,2.738,1.388,4.969,2.185
		c3.742,1.335,6.318,2.767,7.727,4.297C294.963,250.725,295.666,252.711,295.666,255.152z"/>
	<path fill="#FFFFFF" d="M313.66,265.137c-3.955,0-7.076-1.203-9.363-3.613c-2.287-2.407-3.43-5.752-3.43-10.032
		c0-4.313,1.062-7.74,3.186-10.279s4.978-3.809,8.557-3.809c3.354,0,6.007,1.103,7.96,3.308c1.952,2.206,2.93,5.115,2.93,8.728
		v2.563h-18.433c0.08,3.143,0.875,5.525,2.381,7.154c1.505,1.627,3.626,2.441,6.359,2.441c2.881,0,5.729-0.604,8.545-1.808v3.612
		c-1.434,0.619-2.787,1.063-4.064,1.33C317.008,265.003,315.467,265.137,313.66,265.137z M312.561,240.796
		c-2.147,0-3.86,0.7-5.139,2.1c-1.277,1.4-2.031,3.337-2.258,5.811h13.988c0-2.555-0.569-4.512-1.709-5.872
		C316.305,241.476,314.677,240.796,312.561,240.796z"/>
	<path fill="#FFFFFF" d="M334.461,264.648h-4.053V226.66h4.053V264.648z"/>
	<path fill="#FFFFFF" d="M354.357,265.137c-3.955,0-7.076-1.203-9.362-3.613c-2.287-2.407-3.431-5.752-3.431-10.032
		c0-4.313,1.063-7.74,3.187-10.279s4.976-3.809,8.558-3.809c3.353,0,6.006,1.103,7.959,3.308c1.953,2.206,2.931,5.115,2.931,8.728
		v2.563h-18.435c0.082,3.143,0.875,5.525,2.381,7.154c1.507,1.627,3.625,2.441,6.359,2.441c2.881,0,5.729-0.604,8.545-1.808v3.612
		c-1.432,0.619-2.787,1.063-4.063,1.33C357.708,265.001,356.164,265.137,354.357,265.137z M353.26,240.796
		c-2.147,0-3.861,0.7-5.14,2.1s-2.03,3.337-2.259,5.811h13.99c0-2.555-0.57-4.512-1.709-5.872
		C357.002,241.476,355.375,240.796,353.26,240.796z"/>
	<path fill="#FFFFFF" d="M381.799,265.137c-3.873,0-6.872-1.191-8.996-3.576s-3.186-5.758-3.186-10.119
		c0-4.476,1.078-7.935,3.234-10.375c2.155-2.441,5.229-3.662,9.217-3.662c1.285,0,2.57,0.139,3.856,0.415
		c1.285,0.277,2.295,0.603,3.027,0.977l-1.246,3.442c-0.896-0.358-1.871-0.655-2.931-0.891c-1.059-0.236-1.993-0.354-2.807-0.354
		c-5.438,0-8.154,3.467-8.154,10.401c0,3.287,0.662,5.811,1.99,7.567c1.325,1.758,3.291,2.638,5.896,2.638
		c2.229,0,4.518-0.48,6.86-1.441v3.59C386.771,264.674,384.518,265.137,381.799,265.137z"/>
	<path fill="#FFFFFF" d="M403.553,261.793c0.715,0,1.406-0.053,2.074-0.159c0.668-0.104,1.197-0.216,1.588-0.329v3.101
		c-0.438,0.213-1.086,0.387-1.94,0.524c-0.854,0.139-1.623,0.207-2.308,0.207c-5.176,0-7.764-2.726-7.764-8.178v-15.918h-3.834
		v-1.953l3.834-1.685l1.709-5.713h2.344v6.201h7.764v3.149h-7.764v15.747c0,1.611,0.381,2.85,1.146,3.711
		C401.168,261.361,402.217,261.793,403.553,261.793z"/>
	<path fill="#FFFFFF" d="M423.865,265.137c-3.955,0-7.076-1.203-9.363-3.613c-2.287-2.407-3.43-5.752-3.43-10.032
		c0-4.313,1.061-7.74,3.186-10.279c2.123-2.539,4.978-3.809,8.557-3.809c3.354,0,6.007,1.103,7.96,3.308
		c1.952,2.206,2.93,5.115,2.93,8.728v2.563h-18.433c0.08,3.143,0.875,5.525,2.38,7.154c1.506,1.627,3.627,2.441,6.36,2.441
		c2.881,0,5.729-0.604,8.545-1.808v3.612c-1.434,0.619-2.787,1.063-4.065,1.33C427.213,265.003,425.672,265.137,423.865,265.137z
		 M422.766,240.796c-2.147,0-3.86,0.7-5.139,2.1c-1.277,1.4-2.031,3.337-2.258,5.811h13.988c0-2.555-0.57-4.512-1.709-5.872
		C426.51,241.476,424.881,240.796,422.766,240.796z"/>
	<path fill="#FFFFFF" d="M458.826,261.061h-0.221c-1.871,2.719-4.673,4.076-8.398,4.076c-3.5,0-6.221-1.195-8.166-3.588
		s-2.918-5.795-2.918-10.205c0-4.411,0.977-7.837,2.93-10.279s4.672-3.662,8.154-3.662c3.629,0,6.412,1.318,8.35,3.955h0.318
		l-0.172-1.929l-0.098-1.88V226.66h4.053v37.988h-3.295L458.826,261.061z M450.721,261.744c2.767,0,4.773-0.753,6.019-2.26
		c1.246-1.504,1.866-3.935,1.866-7.287v-0.854c0-3.792-0.631-6.499-1.891-8.118c-1.262-1.619-3.277-2.429-6.043-2.429
		c-2.377,0-4.195,0.924-5.457,2.771c-1.262,1.848-1.893,4.456-1.893,7.826c0,3.418,0.627,5.998,1.881,7.737
		C446.455,260.873,448.295,261.744,450.721,261.744z"/>
</g>
</svg>
