<?xml version="1.0" encoding="utf-8"?>
<!-- Generator: Adobe Illustrator 16.0.0, SVG Export Plug-In . SVG Version: 6.00 Build 0)  -->
<!DOCTYPE svg PUBLIC "-//W3C//DTD SVG 1.1//EN" "http://www.w3.org/Graphics/SVG/1.1/DTD/svg11.dtd">
<svg version="1.1" id="Layer_1" xmlns="http://www.w3.org/2000/svg" xmlns:xlink="http://www.w3.org/1999/xlink" x="0px" y="0px"
	 width="500px" height="500px" viewBox="0 0 500 500" enable-background="new 0 0 500 500" xml:space="preserve">
<rect fill="#343A40" stroke="#231F20" stroke-miterlimit="10" width="500" height="500"/>
<g>
	<path fill="#FFFFFF" d="M43.243,267.902v-41.116h5.795l13.177,20.803c3.05,4.819,5.429,9.15,7.381,13.36l0.122-0.063
		c-0.488-5.49-0.61-10.493-0.61-16.897v-17.203h5.002v41.116h-5.369L55.688,247.04c-2.868-4.575-5.613-9.272-7.687-13.726
		l-0.183,0.061c0.305,5.186,0.427,10.127,0.427,16.959v17.568H43.243z"/>
	<path fill="#FFFFFF" d="M109.917,252.896c0,10.92-7.564,15.678-14.702,15.678c-7.992,0-14.153-5.856-14.153-15.189
		c0-9.883,6.466-15.679,14.641-15.679C104.183,237.706,109.917,243.868,109.917,252.896z M86.492,253.201
		c0,6.467,3.721,11.347,8.968,11.347c5.125,0,8.968-4.819,8.968-11.469c0-5.002-2.501-11.347-8.846-11.347
		C89.237,241.732,86.492,247.589,86.492,253.201z"/>
	<path fill="#FFFFFF" d="M135.108,226.786v41.116H129.8v-41.116H135.108z"/>
	<path fill="#FFFFFF" d="M144.806,246.369c0-3.05-0.061-5.551-0.244-7.992h4.697l0.244,4.758h0.183
		c1.647-2.806,4.393-5.429,9.273-5.429c4.026,0,7.077,2.44,8.357,5.917h0.122c0.915-1.647,2.074-2.928,3.294-3.843
		c1.769-1.342,3.721-2.074,6.527-2.074c3.904,0,9.7,2.562,9.7,12.812v17.387h-5.246v-16.717c0-5.672-2.074-9.088-6.406-9.088
		c-3.05,0-5.429,2.257-6.344,4.88c-0.244,0.732-0.427,1.708-0.427,2.685v18.24h-5.246v-17.691c0-4.697-2.074-8.114-6.162-8.114
		c-3.355,0-5.795,2.685-6.649,5.369c-0.305,0.793-0.427,1.708-0.427,2.623v17.813h-5.247v-21.535H144.806z"/>
	<path fill="#FFFFFF" d="M212.03,267.902l-0.427-3.721h-0.183c-1.647,2.317-4.819,4.393-9.028,4.393
		c-5.979,0-9.029-4.209-9.029-8.479c0-7.139,6.344-11.042,17.752-10.981v-0.61c0-2.44-0.671-6.833-6.71-6.833
		c-2.746,0-5.613,0.854-7.688,2.196l-1.22-3.539c2.44-1.586,5.978-2.623,9.7-2.623c9.028,0,11.225,6.162,11.225,12.079v11.041
		c0,2.563,0.122,5.063,0.488,7.077H212.03L212.03,267.902z M211.236,252.835c-5.856-0.122-12.506,0.915-12.506,6.649
		c0,3.478,2.318,5.125,5.063,5.125c3.843,0,6.284-2.44,7.138-4.941c0.183-0.549,0.305-1.159,0.305-1.709V252.835z"/>
	<path fill="#FFFFFF" d="M250.521,238.377c-0.123,2.135-0.245,4.515-0.245,8.114v17.142c0,6.771-1.342,10.92-4.209,13.482
		c-2.867,2.684-7.016,3.537-10.737,3.537c-3.538,0-7.442-0.854-9.822-2.439l1.342-4.087c1.952,1.22,5.002,2.317,8.663,2.317
		c5.49,0,9.518-2.867,9.518-10.31v-3.295h-0.122c-1.647,2.745-4.819,4.94-9.396,4.94c-7.321,0-12.566-6.223-12.566-14.396
		c0-10.005,6.527-15.679,13.299-15.679c5.125,0,7.931,2.684,9.212,5.125h0.122l0.244-4.454L250.521,238.377L250.521,238.377z
		 M244.97,250.029c0-0.915-0.061-1.708-0.305-2.44c-0.976-3.111-3.599-5.673-7.503-5.673c-5.125,0-8.785,4.331-8.785,11.164
		c0,5.796,2.928,10.613,8.724,10.613c3.294,0,6.284-2.073,7.443-5.489c0.305-0.914,0.427-1.951,0.427-2.867L244.97,250.029
		L244.97,250.029z"/>
	<path fill="#FFFFFF" d="M262.17,254.116c0.121,7.26,4.758,10.249,10.127,10.249c3.844,0,6.161-0.672,8.174-1.525l0.916,3.844
		c-1.892,0.854-5.125,1.83-9.822,1.83c-9.09,0-14.52-5.979-14.52-14.885c0-8.907,5.246-15.923,13.848-15.923
		c9.641,0,12.201,8.479,12.201,13.909c0,1.098-0.121,1.951-0.183,2.501H262.17z M277.908,250.273
		c0.062-3.416-1.402-8.724-7.441-8.724c-5.43,0-7.809,5.002-8.236,8.724H277.908z"/>
	<path fill="#FFFFFF" d="M302.855,226.786H325v4.454h-16.838v13.665h15.557v4.392h-15.557v18.605h-5.307V226.786z"/>
	<path fill="#FFFFFF" d="M357.209,252.896c0,10.92-7.564,15.678-14.702,15.678c-7.991,0-14.153-5.856-14.153-15.189
		c0-9.883,6.468-15.679,14.643-15.679C351.475,237.706,357.209,243.868,357.209,252.896z M333.783,253.201
		c0,6.467,3.721,11.347,8.968,11.347c5.124,0,8.968-4.819,8.968-11.469c0-5.002-2.502-11.347-8.846-11.347
		C336.528,241.732,333.783,247.589,333.783,253.201z"/>
	<path fill="#FFFFFF" d="M388.686,259.852c0,3.049,0.062,5.733,0.243,8.053h-4.759l-0.305-4.819h-0.122
		c-1.403,2.379-4.515,5.49-9.761,5.49c-4.638,0-10.188-2.563-10.188-12.933v-17.266h5.368v16.35c0,5.612,1.708,9.396,6.589,9.396
		c3.601,0,6.101-2.502,7.076-4.881c0.305-0.793,0.487-1.769,0.487-2.744v-18.119h5.369v21.474H388.686z"/>
	<path fill="#FFFFFF" d="M397.588,246.369c0-3.05-0.061-5.551-0.244-7.992h4.76l0.305,4.88h0.122
		c1.465-2.806,4.881-5.551,9.761-5.551c4.087,0,10.433,2.44,10.433,12.567v17.629h-5.368v-17.021c0-4.758-1.771-8.724-6.832-8.724
		c-3.539,0-6.283,2.501-7.199,5.491c-0.244,0.671-0.365,1.586-0.365,2.501v17.752h-5.369v-21.533H397.588z"/>
	<path fill="#FFFFFF" d="M456.943,224.59v35.688c0,2.623,0.061,5.613,0.244,7.627h-4.82l-0.243-5.124h-0.122
		c-1.646,3.294-5.247,5.795-10.066,5.795c-7.137,0-12.627-6.039-12.627-15.007c-0.062-9.822,6.039-15.861,13.237-15.861
		c4.515,0,7.563,2.135,8.906,4.514h0.122v-17.63L456.943,224.59L456.943,224.59z M451.574,250.395c0-0.671-0.062-1.586-0.243-2.257
		c-0.794-3.416-3.722-6.222-7.748-6.222c-5.552,0-8.846,4.88-8.846,11.408c0,5.979,2.929,10.92,8.724,10.92
		c3.6,0,6.895-2.38,7.87-6.405c0.183-0.731,0.243-1.465,0.243-2.317V250.395z"/>
</g>
</svg>
